<?xml version="1.0" encoding="UTF-8" standalone="no"?>
<svg
   xmlns:dc="http://purl.org/dc/elements/1.1/"
   xmlns:cc="http://creativecommons.org/ns#"
   xmlns:rdf="http://www.w3.org/1999/02/22-rdf-syntax-ns#"
   xmlns:svg="http://www.w3.org/2000/svg"
   xmlns="http://www.w3.org/2000/svg"
   xmlns:sodipodi="http://sodipodi.sourceforge.net/DTD/sodipodi-0.dtd"
   xmlns:inkscape="http://www.inkscape.org/namespaces/inkscape"
   version="1.0"
   width="2500"
   height="2500"
   viewBox="0 0 1875 1875.0001"
   preserveAspectRatio="xMidYMid meet"
   id="svg5827"
   sodipodi:docname="rdv.svg"
   inkscape:version="0.92.2 (5c3e80d, 2017-08-06)">
  <defs
     id="defs5831" />
  <sodipodi:namedview
     pagecolor="#ffffff"
     bordercolor="#666666"
     borderopacity="1"
     objecttolerance="10"
     gridtolerance="10"
     guidetolerance="10"
     inkscape:pageopacity="0"
     inkscape:pageshadow="2"
     inkscape:window-width="3840"
     inkscape:window-height="2004"
     id="namedview5829"
     showgrid="false"
     units="px"
     inkscape:zoom="0.11041797"
     inkscape:cx="1011.3333"
     inkscape:cy="1068.6667"
     inkscape:window-x="-16"
     inkscape:window-y="-16"
     inkscape:window-maximized="1"
     inkscape:current-layer="svg5827" />
  <metadata
     id="metadata5797">
Created by potrace 1.15, written by Peter Selinger 2001-2017
<rdf:RDF>
  <cc:Work
     rdf:about="">
    <dc:format>image/svg+xml</dc:format>
    <dc:type
       rdf:resource="http://purl.org/dc/dcmitype/StillImage" />
    <dc:title></dc:title>
  </cc:Work>
</rdf:RDF>
</metadata>
  <g
     transform="matrix(0.1,0,0,-0.1,179.25,1739.5)"
     id="g5825"
     style="fill:#000000;stroke:none">
    <path
       d="m 10555,14713 c 3,-725 8,-1567 11,-1870 l 6,-553 h 814 814 v 1870 1870 h -825 -825 z"
       id="path5799"
       inkscape:connector-curvature="0" />
    <path
       d="m 3095,14778 c 3,-678 8,-1522 11,-1875 l 6,-643 h 814 814 v 1875 1875 h -825 -825 z"
       id="path5801"
       inkscape:connector-curvature="0" />
    <path
       d="M 435,14595 C 208,14544 114,14446 31,14174 L 0,14073 V 7309 C 0,1552 2,537 14,493 68,291 238,140 528,36 l 73,-26 h 7028 7028 l 59,24 c 208,86 339,209 419,393 l 35,81 v 6865 6865 l -21,67 c -27,87 -96,161 -184,196 l -60,24 -1042,3 -1043,2 v -1192 -1193 l -58,-92 c -150,-241 -326,-412 -561,-546 -541,-307 -1286,-268 -1796,95 -168,120 -311,283 -395,449 l -40,82 2,1233 3,1234 H 7603 5230 v -1292 -1293 l -41,-75 c -279,-516 -949,-807 -1597,-694 -176,30 -393,117 -545,218 -175,116 -361,325 -456,513 l -21,42 v 1117 1118 l -40,82 c -55,113 -131,194 -225,239 l -72,35 -869,-1 c -688,0 -882,-3 -929,-14 z M 14250,5740 V 1600 H 7515 780 v 4124 c 0,2268 -3,4131 -6,4140 -6,15 592,16 6735,16 h 6741 z"
       id="path5803"
       inkscape:connector-curvature="0" />
    <path
       d="m 8320,8365 v -795 h 795 795 v 795 795 h -795 -795 z"
       id="path5805"
       inkscape:connector-curvature="0" />
    <path
       d="m 11440,8365 v -795 h 795 795 v 795 795 h -795 -795 z"
       id="path5807"
       inkscape:connector-curvature="0" />
    <path
       d="m 1990,5810 v -790 h 795 795 v 790 790 h -795 -795 z"
       id="path5809"
       inkscape:connector-curvature="0" />
    <path
       d="m 5210,5810 v -790 h 790 790 v 790 790 h -790 -790 z"
       id="path5811"
       inkscape:connector-curvature="0" />
    <path
       d="m 8320,5810 v -790 h 795 795 v 790 790 h -795 -795 z"
       id="path5813"
       inkscape:connector-curvature="0" />
    <path
       d="m 11440,5810 v -790 h 795 795 v 790 790 h -795 -795 z"
       id="path5815"
       inkscape:connector-curvature="0" />
    <path
       d="m 1990,3255 v -795 h 795 795 v 795 795 h -795 -795 z"
       id="path5817"
       inkscape:connector-curvature="0" />
    <path
       d="m 5210,3255 v -795 h 790 790 v 795 795 h -790 -790 z"
       id="path5819"
       inkscape:connector-curvature="0" />
    <path
       d="m 8320,3255 v -795 h 795 795 v 795 795 h -795 -795 z"
       id="path5821"
       inkscape:connector-curvature="0" />
    <path
       d="m 11440,3255 v -795 h 795 795 v 795 795 h -795 -795 z"
       id="path5823"
       inkscape:connector-curvature="0" />
  </g>
</svg>
