<?xml version="1.0" encoding="UTF-8" standalone="no"?>
<svg
   xmlns:dc="http://purl.org/dc/elements/1.1/"
   xmlns:cc="http://creativecommons.org/ns#"
   xmlns:rdf="http://www.w3.org/1999/02/22-rdf-syntax-ns#"
   xmlns:svg="http://www.w3.org/2000/svg"
   xmlns="http://www.w3.org/2000/svg"
   xmlns:sodipodi="http://sodipodi.sourceforge.net/DTD/sodipodi-0.dtd"
   xmlns:inkscape="http://www.inkscape.org/namespaces/inkscape"
   version="1.0"
   width="2000"
   height="2000"
   viewBox="0 0 1500 1500"
   preserveAspectRatio="xMidYMid meet"
   id="svg5212"
   sodipodi:docname="sante.svg"
   inkscape:version="0.92.2 (5c3e80d, 2017-08-06)">
  <defs
     id="defs5216" />
  <sodipodi:namedview
     pagecolor="#ffffff"
     bordercolor="#666666"
     borderopacity="1"
     objecttolerance="10"
     gridtolerance="10"
     guidetolerance="10"
     inkscape:pageopacity="0"
     inkscape:pageshadow="2"
     inkscape:window-width="3840"
     inkscape:window-height="2004"
     id="namedview5214"
     showgrid="false"
     units="px"
     inkscape:zoom="0.1461602"
     inkscape:cx="937.33333"
     inkscape:cy="807.33333"
     inkscape:window-x="-16"
     inkscape:window-y="-16"
     inkscape:window-maximized="1"
     inkscape:current-layer="svg5212" />
  <metadata
     id="metadata5202">
Created by potrace 1.15, written by Peter Selinger 2001-2017
<rdf:RDF>
  <cc:Work
     rdf:about="">
    <dc:format>image/svg+xml</dc:format>
    <dc:type
       rdf:resource="http://purl.org/dc/dcmitype/StillImage" />
    <dc:title></dc:title>
  </cc:Work>
</rdf:RDF>
</metadata>
  <g
     transform="matrix(0.1,0,0,-0.1,47.25,1355.75)"
     id="g5210"
     style="fill:#000000;stroke:none">
    <path
       d="m 4652,12080 c -205,-54 -342,-194 -408,-415 -17,-55 -18,-130 -21,-943 l -4,-884 -699,4 -700,3 V 4933 20 h 4165 4165 v 4895 4895 h -482 c -266,0 -519,3 -563,6 l -80,7 v 796 c 0,851 -1,872 -51,1023 -57,174 -186,307 -364,378 -30,12 -102,34 -160,48 l -105,27 -2310,2 c -2251,2 -2312,2 -2383,-17 z m 4259,-755 c 184,-47 267,-172 299,-450 5,-49 10,-307 10,-573 v -484 l -1752,6 c -964,4 -1925,9 -2135,12 l -383,6 v 574 574 l 25,67 c 39,103 87,168 157,213 33,22 77,45 97,52 28,10 419,14 1741,19 938,3 1744,4 1791,3 47,-1 114,-10 150,-19 z M 8200,7140 V 6060 h 1020 1020 V 4960 3860 H 9210 8180 V 2875 1890 H 6990 5800 v 995 995 h -990 -990 v 1035 1035 h 981 c 931,0 981,1 973,18 -5,9 -10,520 -12,1135 l -2,1117 h 1220 1220 z"
       id="path5204"
       inkscape:connector-curvature="0" />
    <path
       d="M 1390,9840 C 1031,9813 783,9696 520,9431 338,9248 226,9088 56,8769 L 0,8663 2,5039 5,1415 46,1295 C 240,734 598,306 1040,109 l 109,-49 h 336 335 v 4885 4885 l -22,4 c -47,10 -307,13 -408,6 z"
       id="path5206"
       inkscape:connector-curvature="0" />
    <path
       d="M 12240,4966 V 83 l 83,-6 c 771,-61 1237,231 1659,1038 l 78,150 v 3596 3596 l -29,99 c -173,581 -548,1043 -1014,1251 l -97,43 h -340 -340 z"
       id="path5208"
       inkscape:connector-curvature="0" />
  </g>
</svg>
